<svg xmlns="http://www.w3.org/2000/svg" xmlns:xlink="http://www.w3.org/1999/xlink" xmlns:inkscape="http://www.inkscape.org/namespaces/inkscape" version="1.1" width="100%" height="100%" viewBox="0 0 1152 525.6">
<title>Auxiliary logging and complete audit readouts</title>
<desc>Initial answers are reused while generated rationales are logged separately. Teacher-forced Yes/No scores for open-weight models provide auxiliary diagnostics, including preference-report mismatch, rather than direct measures of latent belief.</desc>
<style>text, tspan { user-select: text; -webkit-user-select: text; cursor: text; } ::selection { background: #d8e9fa; }</style>
<defs>
<clipPath id="clip_1">
<path transform="matrix(1,0,0,-1,0,525.6)" d="M0 .028H1151.971V525.599H0Z" clip-rule="evenodd"/>
</clipPath>
</defs>
<g clip-path="url(#clip_1)">
<path transform="matrix(1,0,0,-1,0,525.6)" d="M0 525.6H1151.972V.028H0V525.6Z" fill="#ffffff" fill-rule="evenodd"/>
<path transform="matrix(1,0,0,-1,0,525.6)" d="M0 525.6H1152V0H0V525.6Z" fill="#ffffff" fill-rule="evenodd"/>
<text fill="#203346" xml:space="preserve" transform="matrix(1 0 -0 1 0 525.6)" font-size="25.002" font-family="'Times New Roman', Times, serif" font-weight="bold"><tspan y="-487.446" x="12.926">a</tspan></text>
<text fill="#203346" xml:space="preserve" transform="matrix(1 0 -0 1 0 525.6)" font-size="21.997" font-family="Arial, Helvetica, sans-serif" font-weight="bold"><tspan y="-488.721" x="43.909 58.537008 70.745349 82.95368 95.16202 101.25519 113.463527 120.76653 126.8597 132.95287 146.37104 152.4642 159.7672 165.86037 178.0687 184.16187 190.25504 203.6732 215.85955 228.06787 234.16104 246.36937 252.46254 265.8587">Pass 1: initial decision</tspan></text>
<path transform="matrix(1,0,0,-1,0,525.6)" d="M12.926 451.502V451.502C12.926 453.005 13.323 454.507 14.088 455.811 14.854 457.143 15.931 458.22 17.235 458.986 18.567 459.751 20.041 460.148 21.572 460.148L333.326 460.12C334.828 460.12 336.331 459.723 337.635 458.957 338.967 458.192 340.044 457.115 340.809 455.811 341.575 454.479 341.972 453.005 341.972 451.474V63.411C341.972 61.909 341.575 60.406 340.809 59.102 340.044 57.77 338.967 56.693 337.663 55.928 336.331 55.162 334.857 54.765 333.326 54.765H21.543C20.041 54.765 18.539 55.162 17.235 55.928 15.902 56.693 14.825 57.77 14.06 59.074 13.294 60.406 12.898 61.88 12.898 63.411L12.926 451.502Z" fill="#f7f9fa" fill-rule="evenodd"/>
<path transform="matrix(1,0,0,-1,0,525.6)" stroke-width=".99211" stroke-linecap="butt" stroke-linejoin="round" fill="none" stroke="#b9c6cf" d="M12.926 451.502V451.502C12.926 453.005 13.323 454.507 14.088 455.811 14.854 457.143 15.931 458.22 17.235 458.986 18.567 459.751 20.041 460.148 21.572 460.148L333.326 460.12C334.828 460.12 336.331 459.723 337.635 458.957 338.967 458.192 340.044 457.115 340.809 455.811 341.575 454.479 341.972 453.005 341.972 451.474V63.411C341.972 61.909 341.575 60.406 340.809 59.102 340.044 57.77 338.967 56.693 337.663 55.928 336.331 55.162 334.857 54.765 333.326 54.765H21.543C20.041 54.765 18.539 55.162 17.235 55.928 15.902 56.693 14.825 57.77 14.06 59.074 13.294 60.406 12.898 61.88 12.898 63.411L12.926 451.502Z"/>
<path transform="matrix(1,0,0,-1,0,525.6)" d="M30.246 439.569V439.569C30.246 440.504 30.501 441.439 30.983 442.261 31.436 443.083 32.117 443.764 32.939 444.246 33.761 444.728 34.696 444.954 35.631 444.954H319.323C320.258 444.954 321.194 444.699 322.016 444.217 322.838 443.764 323.518 443.083 324 442.261 324.482 441.439 324.709 440.504 324.709 439.569L324.737 394.214C324.737 393.279 324.482 392.343 324 391.521 323.546 390.699 322.866 390.019 322.044 389.537 321.222 389.055 320.287 388.828 319.351 388.828L35.631 388.8C34.696 388.8 33.761 389.055 32.939 389.537 32.117 389.991 31.436 390.671 30.954 391.493 30.472 392.315 30.246 393.25 30.246 394.186V439.569Z" fill="#ffffff" fill-rule="evenodd"/>
<path transform="matrix(1,0,0,-1,0,525.6)" stroke-width=".99211" stroke-linecap="butt" stroke-linejoin="round" fill="none" stroke="#86accf" d="M30.246 439.569V439.569C30.246 440.504 30.501 441.439 30.983 442.261 31.436 443.083 32.117 443.764 32.939 444.246 33.761 444.728 34.696 444.954 35.631 444.954H319.323C320.258 444.954 321.194 444.699 322.016 444.217 322.838 443.764 323.518 443.083 324 442.261 324.482 441.439 324.709 440.504 324.709 439.569L324.737 394.214C324.737 393.279 324.482 392.343 324 391.521 323.546 390.699 322.866 390.019 322.044 389.537 321.222 389.055 320.287 388.828 319.351 388.828L35.631 388.8C34.696 388.8 33.761 389.055 32.939 389.537 32.117 389.991 31.436 390.671 30.954 391.493 30.472 392.315 30.246 393.25 30.246 394.186V439.569Z"/>
<text fill="#203346" xml:space="preserve" transform="matrix(1 0 -0 1 0 525.6)" font-size="21.487" font-family="Arial, Helvetica, sans-serif" font-weight="bold"><tspan y="-421.228" x="51.222 67.9174 81.02447 92.94975 104.89652 112.03021 117.98211 131.06769 144.17476 150.12667 166.82207 172.77397 185.30089 191.25279 203.17809 215.12487 221.07677 234.18384 246.13062 259.2162 271.16297 283.08827 289.04017">Question Q + evidence E</tspan></text>
<text fill="#526270" xml:space="preserve" transform="matrix(1 0 -0 1 0 525.6)" font-size="18.51" font-family="Arial, Helvetica, sans-serif"><tspan y="-397.276" x="33.676 45.98515 56.27671 66.54976 81.96859 92.24164 102.5332 116.915477 128.22509 133.35236 139.49768 144.62496 156.95262 166.20763 170.31685 181.60796 191.88101 201.13602 206.2818 211.40908 217.5544 222.68167 236.0459 246.31896 256.6105 261.73777 267.88307 278.17463 287.42964 292.5569 305.9211 316.19416">PubMedQA &#x00b7; SciFact &#x00b7; ContractNLI</tspan></text>
<path transform="matrix(1,0,0,-1,0,525.6)" stroke-width="1.50233" stroke-linecap="round" stroke-linejoin="round" fill="none" stroke="#526270" d="M177.817 387.383V374.513"/>
<path transform="matrix(1,0,0,-1,0,525.6)" d="M177.817 370.8 175.833 374.769H179.802L177.817 370.8Z" fill="#526270" fill-rule="evenodd"/>
<path transform="matrix(1,0,0,-1,0,525.6)" d="M80.646 361.843V361.843C80.646 362.92 80.929 363.969 81.468 364.904 82.006 365.839 82.772 366.605 83.707 367.143 84.643 367.682 85.691 367.965 86.769 367.965L268.214 367.937C269.291 367.937 270.34 367.654 271.276 367.115 272.211 366.576 272.976 365.811 273.515 364.876 274.054 363.94 274.337 362.891 274.337 361.814V320.769C274.337 319.691 274.054 318.643 273.515 317.707 272.976 316.772 272.211 316.006 271.276 315.468 270.34 314.929 269.291 314.646 268.214 314.646H86.74C85.663 314.646 84.614 314.929 83.679 315.468 82.743 316.006 81.978 316.772 81.439 317.707 80.901 318.643 80.617 319.691 80.617 320.769L80.646 361.843Z" fill="#ffffff" fill-rule="evenodd"/>
<path transform="matrix(1,0,0,-1,0,525.6)" stroke-width="1.30391" stroke-linecap="butt" stroke-linejoin="round" fill="none" stroke="#2768a5" d="M80.646 361.843V361.843C80.646 362.92 80.929 363.969 81.468 364.904 82.006 365.839 82.772 366.605 83.707 367.143 84.643 367.682 85.691 367.965 86.769 367.965L268.214 367.937C269.291 367.937 270.34 367.654 271.276 367.115 272.211 366.576 272.976 365.811 273.515 364.876 274.054 363.94 274.337 362.891 274.337 361.814V320.769C274.337 319.691 274.054 318.643 273.515 317.707 272.976 316.772 272.211 316.006 271.276 315.468 270.34 314.929 269.291 314.646 268.214 314.646H86.74C85.663 314.646 84.614 314.929 83.679 315.468 82.743 316.006 81.978 316.772 81.439 317.707 80.901 318.643 80.617 319.691 80.617 320.769L80.646 361.843Z"/>
<path transform="matrix(1,0,0,-1,0,525.6)" d="M102.416 348.661V348.661C102.416 349.228 102.557 349.795 102.841 350.277 103.124 350.787 103.55 351.184 104.031 351.468 104.542 351.751 105.08 351.893 105.647 351.893H120.359C120.926 351.893 121.493 351.751 121.975 351.468 122.485 351.184 122.882 350.759 123.165 350.277 123.449 349.767 123.591 349.228 123.591 348.661L123.619 333.95C123.619 333.383 123.477 332.816 123.194 332.334 122.91 331.824 122.485 331.427 122.003 331.143 121.493 330.86 120.954 330.718 120.387 330.718L105.647 330.69C105.08 330.69 104.513 330.831 104.031 331.115 103.521 331.398 103.124 331.824 102.841 332.306 102.557 332.816 102.416 333.354 102.416 333.921V348.661Z" fill="#ffffff" fill-rule="evenodd"/>
<path transform="matrix(1,0,0,-1,0,525.6)" stroke-width="1.3606" stroke-linecap="butt" stroke-linejoin="round" fill="none" stroke="#2768a5" d="M102.416 348.661V348.661C102.416 349.228 102.557 349.795 102.841 350.277 103.124 350.787 103.55 351.184 104.031 351.468 104.542 351.751 105.08 351.893 105.647 351.893H120.359C120.926 351.893 121.493 351.751 121.975 351.468 122.485 351.184 122.882 350.759 123.165 350.277 123.449 349.767 123.591 349.228 123.591 348.661L123.619 333.95C123.619 333.383 123.477 332.816 123.194 332.334 122.91 331.824 122.485 331.427 122.003 331.143 121.493 330.86 120.954 330.718 120.387 330.718L105.647 330.69C105.08 330.69 104.513 330.831 104.031 331.115 103.521 331.398 103.124 331.824 102.841 332.306 102.557 332.816 102.416 333.354 102.416 333.921V348.661Z"/>
<path transform="matrix(1,0,0,-1,0,525.6)" stroke-width="1.10549" stroke-linecap="round" stroke-linejoin="round" fill="none" stroke="#2768a5" d="M96.803 347.924H101.764"/>
<path transform="matrix(1,0,0,-1,0,525.6)" stroke-width="1.10549" stroke-linecap="round" stroke-linejoin="round" fill="none" stroke="#2768a5" d="M124.299 347.924H129.26"/>
<path transform="matrix(1,0,0,-1,0,525.6)" stroke-width="1.10549" stroke-linecap="round" stroke-linejoin="round" fill="none" stroke="#2768a5" d="M106.413 357.534V352.545"/>
<path transform="matrix(1,0,0,-1,0,525.6)" stroke-width="1.10549" stroke-linecap="round" stroke-linejoin="round" fill="none" stroke="#2768a5" d="M106.413 330.038V325.077"/>
<path transform="matrix(1,0,0,-1,0,525.6)" stroke-width="1.10549" stroke-linecap="round" stroke-linejoin="round" fill="none" stroke="#2768a5" d="M96.803 341.291H101.764"/>
<path transform="matrix(1,0,0,-1,0,525.6)" stroke-width="1.10549" stroke-linecap="round" stroke-linejoin="round" fill="none" stroke="#2768a5" d="M124.299 341.291H129.26"/>
<path transform="matrix(1,0,0,-1,0,525.6)" stroke-width="1.10549" stroke-linecap="round" stroke-linejoin="round" fill="none" stroke="#2768a5" d="M113.017 357.534V352.545"/>
<path transform="matrix(1,0,0,-1,0,525.6)" stroke-width="1.10549" stroke-linecap="round" stroke-linejoin="round" fill="none" stroke="#2768a5" d="M113.017 330.038V325.077"/>
<path transform="matrix(1,0,0,-1,0,525.6)" stroke-width="1.10549" stroke-linecap="round" stroke-linejoin="round" fill="none" stroke="#2768a5" d="M96.803 334.658H101.764"/>
<path transform="matrix(1,0,0,-1,0,525.6)" stroke-width="1.10549" stroke-linecap="round" stroke-linejoin="round" fill="none" stroke="#2768a5" d="M124.299 334.658H129.26"/>
<path transform="matrix(1,0,0,-1,0,525.6)" stroke-width="1.10549" stroke-linecap="round" stroke-linejoin="round" fill="none" stroke="#2768a5" d="M119.65 357.534V352.545"/>
<path transform="matrix(1,0,0,-1,0,525.6)" stroke-width="1.10549" stroke-linecap="round" stroke-linejoin="round" fill="none" stroke="#2768a5" d="M119.65 330.038V325.077"/>
<path transform="matrix(1,0,0,-1,0,525.6)" stroke-width=".99211" stroke-linecap="round" stroke-linejoin="round" fill="none" stroke="#2768a5" d="M107.376 345.572H112.989V337.946H117.978"/>
<path transform="matrix(1,0,0,-1,0,525.6)" stroke-width=".99211" stroke-linecap="round" stroke-linejoin="round" fill="none" stroke="#2768a5" d="M107.745 336.331H110.721V340.639"/>
<text fill="#2768a5" xml:space="preserve" transform="matrix(1 0 -0 1 0 525.6)" font-size="25.002" font-family="Arial, Helvetica, sans-serif" font-weight="bold"><tspan y="-333.723" x="142.554 163.33068 178.5819 193.83312 207.68422 214.60977">Model </tspan></text>
<text fill="#2768a5" xml:space="preserve" transform="matrix(1 0 -0 1 0 525.6)" font-size="25.002" font-family="'Times New Roman', Times, serif" font-weight="bold" font-style="italic"><tspan y="-333.723" x="221.584">M</tspan></text>
<path transform="matrix(1,0,0,-1,0,525.6)" stroke-width="1.38895" stroke-linecap="round" stroke-linejoin="round" fill="none" stroke="#2768a5" d="M127.417 313.2V296.05"/>
<path transform="matrix(1,0,0,-1,0,525.6)" d="M127.417 292.337 125.433 296.306H129.402L127.417 292.337Z" fill="#2768a5" fill-rule="evenodd"/>
<path transform="matrix(1,0,0,-1,0,525.6)" stroke-width="1.30391" stroke-linecap="round" stroke-linejoin="round" fill="none" stroke="#72618c" d="M234 313.2V296.05"/>
<path transform="matrix(1,0,0,-1,0,525.6)" d="M234 292.337 232.016 296.306H235.984L234 292.337Z" fill="#72618c" fill-rule="evenodd"/>
<path transform="matrix(1,0,0,-1,0,525.6)" d="M64.063 284.06V284.06C64.063 284.995 64.318 285.931 64.8 286.753 65.254 287.575 65.934 288.255 66.756 288.737 67.578 289.219 68.513 289.446 69.449 289.446H185.357C186.293 289.446 187.228 289.191 188.05 288.709 188.872 288.255 189.553 287.575 190.035 286.753 190.517 285.931 190.743 284.995 190.743 284.06L190.772 243.751C190.772 242.816 190.517 241.88 190.035 241.058 189.581 240.236 188.901 239.556 188.079 239.074 187.257 238.592 186.321 238.365 185.386 238.365L69.449 238.337C68.513 238.337 67.578 238.592 66.756 239.074 65.934 239.528 65.254 240.208 64.772 241.03 64.29 241.852 64.063 242.787 64.063 243.723V284.06Z" fill="#ecf4fc" fill-rule="evenodd"/>
<path transform="matrix(1,0,0,-1,0,525.6)" stroke-width="1.19053" stroke-linecap="butt" stroke-linejoin="round" fill="none" stroke="#2768a5" d="M64.063 284.06V284.06C64.063 284.995 64.318 285.931 64.8 286.753 65.254 287.575 65.934 288.255 66.756 288.737 67.578 289.219 68.513 289.446 69.449 289.446H185.357C186.293 289.446 187.228 289.191 188.05 288.709 188.872 288.255 189.553 287.575 190.035 286.753 190.517 285.931 190.743 284.995 190.743 284.06L190.772 243.751C190.772 242.816 190.517 241.88 190.035 241.058 189.581 240.236 188.901 239.556 188.079 239.074 187.257 238.592 186.321 238.365 185.386 238.365L69.449 238.337C68.513 238.337 67.578 238.592 66.756 239.074 65.934 239.528 65.254 240.208 64.772 241.03 64.29 241.852 64.063 242.787 64.063 243.723V284.06Z"/>
<text fill="#2768a5" xml:space="preserve" transform="matrix(1 0 -0 1 0 525.6)" font-size="19.502" font-family="Arial, Helvetica, sans-serif" font-weight="bold"><tspan y="-267.25" x="101.877 107.27905 119.21428 124.61633 131.1105 136.53206 147.39467">Initial</tspan></text>
<text fill="#203346" xml:space="preserve" transform="matrix(1 0 -0 1 0 525.6)" font-size="25.002" font-family="'Times New Roman', Times, serif"><tspan y="-243.354" x="114.066 132.06745">Y&#x2081;</tspan></text>
<path transform="matrix(1,0,0,-1,0,525.6)" d="M208.091 284.06V284.06C208.091 284.995 208.346 285.931 208.828 286.753 209.282 287.575 209.962 288.255 210.784 288.737 211.606 289.219 212.542 289.446 213.477 289.446H309.969C310.904 289.446 311.839 289.191 312.661 288.709 313.483 288.255 314.164 287.575 314.646 286.753 315.128 285.931 315.354 284.995 315.354 284.06L315.383 243.751C315.383 242.816 315.128 241.88 314.646 241.058 314.192 240.236 313.512 239.556 312.69 239.074 311.868 238.592 310.932 238.365 309.997 238.365L213.477 238.337C212.542 238.337 211.606 238.592 210.784 239.074 209.962 239.528 209.282 240.208 208.8 241.03 208.318 241.852 208.091 242.787 208.091 243.723V284.06Z" fill="#f4f0f8" fill-rule="evenodd"/>
<path transform="matrix(1,0,0,-1,0,525.6)" stroke-width=".99211" stroke-linecap="butt" stroke-dasharray="3.96843,2.97632" stroke-linejoin="round" fill="none" stroke="#b9aacc" d="M208.091 284.06V284.06C208.091 284.995 208.346 285.931 208.828 286.753 209.282 287.575 209.962 288.255 210.784 288.737 211.606 289.219 212.542 289.446 213.477 289.446H309.969C310.904 289.446 311.839 289.191 312.661 288.709 313.483 288.255 314.164 287.575 314.646 286.753 315.128 285.931 315.354 284.995 315.354 284.06L315.383 243.751C315.383 242.816 315.128 241.88 314.646 241.058 314.192 240.236 313.512 239.556 312.69 239.074 311.868 238.592 310.932 238.365 309.997 238.365L213.477 238.337C212.542 238.337 211.606 238.592 210.784 239.074 209.962 239.528 209.282 240.208 208.8 241.03 208.318 241.852 208.091 242.787 208.091 243.723V284.06Z"/>
<text fill="#72618c" xml:space="preserve" transform="matrix(1 0 -0 1 0 525.6)" font-size="19.502" font-family="Arial, Helvetica, sans-serif" font-weight="bold"><tspan y="-267.25" x="217.672 231.77194 242.63455 249.12873 254.55028 266.4855 278.4012 289.26383 294.6854">Rationale</tspan></text>
<text fill="#72618c" xml:space="preserve" transform="matrix(1 0 -0 1 0 525.6)" font-size="25.002" font-family="'Times New Roman', Times, serif"><tspan y="-243.354" x="249.024 265.67533">R&#x2081;</tspan></text>
<path transform="matrix(1,0,0,-1,0,525.6)" stroke-width="1.10549" stroke-linecap="round" stroke-dasharray="3.32753,4.41092" stroke-linejoin="round" fill="none" stroke="#72618c" d="M261.354 236.183V221.159"/>
<path transform="matrix(1,0,0,-1,0,525.6)" d="M261.354 217.446 259.37 221.414H263.339L261.354 217.446Z" fill="#72618c" fill-rule="evenodd"/>
<text fill="#72618c" xml:space="preserve" transform="matrix(1 0 -0 1 0 525.6)" font-size="18.51" font-family="Arial, Helvetica, sans-serif"><tspan y="-201.713" x="208.828 219.10106 229.39263 239.66568 249.95725 260.2303 270.52186 275.6491 285.94068 296.2137 300.32295 309.57795">Logged only;</tspan></text>
<text fill="#72618c" xml:space="preserve" transform="matrix(1 0 -0 1 0 525.6)" font-size="18.51" font-family="Arial, Helvetica, sans-serif"><tspan y="-178.838" x="215.518 225.79106 236.08263 241.2099 246.33718 252.4825 262.77406 273.0471 282.3021 292.59367 302.8667">not reused.</tspan></text>
<path transform="matrix(1,0,0,-1,0,525.6)" d="M30.246 142.583V142.583C30.246 143.603 30.501 144.595 31.011 145.474 31.521 146.353 32.258 147.061 33.137 147.572 34.016 148.082 35.008 148.337 36 148.337H318.954C319.975 148.337 320.967 148.082 321.846 147.572 322.724 147.061 323.433 146.324 323.943 145.446 324.454 144.567 324.709 143.575 324.709 142.583L324.737 79.228C324.737 78.208 324.482 77.216 323.972 76.337 323.461 75.458 322.724 74.75 321.846 74.239 320.967 73.729 319.975 73.474 318.983 73.474L36 73.446C34.98 73.446 33.987 73.701 33.109 74.211 32.23 74.721 31.521 75.458 31.011 76.337 30.501 77.216 30.246 78.208 30.246 79.2V142.583Z" fill="#f4f0f8" fill-rule="evenodd"/>
<path transform="matrix(1,0,0,-1,0,525.6)" stroke-width=".99211" stroke-linecap="butt" stroke-dasharray="3.96843,2.97632" stroke-linejoin="round" fill="none" stroke="#b9aacc" d="M30.246 142.583V142.583C30.246 143.603 30.501 144.595 31.011 145.474 31.521 146.353 32.258 147.061 33.137 147.572 34.016 148.082 35.008 148.337 36 148.337H318.954C319.975 148.337 320.967 148.082 321.846 147.572 322.724 147.061 323.433 146.324 323.943 145.446 324.454 144.567 324.709 143.575 324.709 142.583L324.737 79.228C324.737 78.208 324.482 77.216 323.972 76.337 323.461 75.458 322.724 74.75 321.846 74.239 320.967 73.729 319.975 73.474 318.983 73.474L36 73.446C34.98 73.446 33.987 73.701 33.109 74.211 32.23 74.721 31.521 75.458 31.011 76.337 30.501 77.216 30.246 78.208 30.246 79.2V142.583Z"/>
<text fill="#72618c" xml:space="preserve" transform="matrix(1 0 -0 1 0 525.6)" font-size="19.502" font-family="Arial, Helvetica, sans-serif" font-weight="bold"><tspan y="-122.23" x="46.46 59.48734 70.34995 81.19307 92.05569 98.54985 109.41247 114.81452 121.308689 132.1713 143.0339 153.87702 165.81224 176.67485 184.26113 190.7553 197.24947 209.16519 216.77097 227.63358 238.47669 250.41191 255.83347 266.67658 277.53919 289.4744 297.06068">Pass-1 teacher-forced score</tspan></text>
<text fill="#72618c" xml:space="preserve" transform="matrix(1 0 -0 1 0 525.6)" font-size="23.499" font-family="'Times New Roman', Times, serif"><tspan y="-87.024" x="46.573 57.829027 66.006679 71.881427 85.13486 91.009609 97.54233 109.268329 121.01782 126.89257 139.95803 147.78319 162.44657 172.85663 181.99774 189.8229 195.69766 208.9276 214.80236 221.31157 233.06107 244.81056 250.68532 263.75077 271.57594 288.5657 300.29173">&#x2113;&#x2081; = log P(Yes) &#x2212; log P(No)</tspan></text>
<path transform="matrix(1,0,0,-1,0,525.6)" stroke-width=".90707" stroke-linecap="round" stroke-dasharray="2.73028,3.61921" stroke-linejoin="round" fill="none" stroke="#72618c" d="M45.326 388.828V377.32H40.28V156.274"/>
<path transform="matrix(1,0,0,-1,0,525.6)" stroke-width=".99211" stroke-linecap="round" stroke-dasharray="2.98625,3.95851" stroke-linejoin="round" fill="none" stroke="#72618c" d="M40.309 156.246V153.496"/>
<path transform="matrix(1,0,0,-1,0,525.6)" d="M40.309 149.783 38.324 153.751H42.293L40.309 149.783Z" fill="#72618c" fill-rule="evenodd"/>
<text fill="#2768a5" xml:space="preserve" transform="matrix(1 0 -0 1 0 525.6)" font-size="18.51" font-family="Arial, Helvetica, sans-serif" font-weight="bold"><tspan y="-201.798" x="64.8 78.127208 88.41876 99.70986 110.00142 120.274478 125.08708 137.39624 145.04087 150.16814 161.45925 172.75035 177.87763">Reuse Y&#x2081; only</tspan></text>
<text fill="#203346" xml:space="preserve" transform="matrix(1 0 -0 1 0 525.6)" font-size="25.002" font-family="'Times New Roman', Times, serif" font-weight="bold"><tspan y="-487.446" x="375.817">b</tspan></text>
<text fill="#203346" xml:space="preserve" transform="matrix(1 0 -0 1 0 525.6)" font-size="21.997" font-family="Arial, Helvetica, sans-serif" font-weight="bold"><tspan y="-488.721" x="406.8 421.42799 433.63633 445.84468 458.053 464.14619 476.35453 483.65754 489.7507 509.28404 521.4924 528.7954 541.0038 554.39999 566.60836 580.0045 586.09768 594.6545 606.8408 619.0492 625.14236 637.3287 643.4218 656.818 670.2142">Pass 2: matched revisions</tspan></text>
<path transform="matrix(1,0,0,-1,0,525.6)" d="M375.846 451.502V451.502C375.846 453.005 376.243 454.507 377.008 455.811 377.773 457.143 378.85 458.22 380.154 458.986 381.487 459.751 382.961 460.148 384.491 460.148L728.646 460.12C730.148 460.12 731.65 459.723 732.954 458.957 734.287 458.192 735.364 457.115 736.129 455.811 736.894 454.479 737.291 453.005 737.291 451.474V63.411C737.291 61.909 736.894 60.406 736.129 59.102 735.364 57.77 734.287 56.693 732.983 55.928 731.65 55.162 730.176 54.765 728.646 54.765H384.463C382.961 54.765 381.458 55.162 380.154 55.928 378.822 56.693 377.745 57.77 376.98 59.074 376.214 60.406 375.817 61.88 375.817 63.411L375.846 451.502Z" fill="#f7f9fa" fill-rule="evenodd"/>
<path transform="matrix(1,0,0,-1,0,525.6)" stroke-width=".99211" stroke-linecap="butt" stroke-linejoin="round" fill="none" stroke="#b9c6cf" d="M375.846 451.502V451.502C375.846 453.005 376.243 454.507 377.008 455.811 377.773 457.143 378.85 458.22 380.154 458.986 381.487 459.751 382.961 460.148 384.491 460.148L728.646 460.12C730.148 460.12 731.65 459.723 732.954 458.957 734.287 458.192 735.364 457.115 736.129 455.811 736.894 454.479 737.291 453.005 737.291 451.474V63.411C737.291 61.909 736.894 60.406 736.129 59.102 735.364 57.77 734.287 56.693 732.983 55.928 731.65 55.162 730.176 54.765 728.646 54.765H384.463C382.961 54.765 381.458 55.162 380.154 55.928 378.822 56.693 377.745 57.77 376.98 59.074 376.214 60.406 375.817 61.88 375.817 63.411L375.846 451.502Z"/>
<path transform="matrix(1,0,0,-1,0,525.6)" d="M393.846 438.888V438.888C393.846 439.965 394.129 441.014 394.668 441.95 395.206 442.885 395.972 443.65 396.907 444.189 397.843 444.728 398.891 445.011 399.969 445.011L713.169 444.983C714.246 444.983 715.294 444.699 716.23 444.161 717.165 443.622 717.931 442.857 718.469 441.921 719.008 440.986 719.291 439.937 719.291 438.86V338.797C719.291 337.72 719.008 336.671 718.469 335.735 717.931 334.8 717.165 334.035 716.23 333.496 715.294 332.957 714.246 332.674 713.169 332.674H399.94C398.863 332.674 397.814 332.957 396.879 333.496 395.943 334.035 395.178 334.8 394.639 335.735 394.101 336.671 393.817 337.72 393.817 338.797L393.846 438.888Z" fill="#eaf5f1" fill-rule="evenodd"/>
<path transform="matrix(1,0,0,-1,0,525.6)" stroke-width=".99211" stroke-linecap="butt" stroke-linejoin="round" fill="none" stroke="#87b9ad" d="M393.846 438.888V438.888C393.846 439.965 394.129 441.014 394.668 441.95 395.206 442.885 395.972 443.65 396.907 444.189 397.843 444.728 398.891 445.011 399.969 445.011L713.169 444.983C714.246 444.983 715.294 444.699 716.23 444.161 717.165 443.622 717.931 442.857 718.469 441.921 719.008 440.986 719.291 439.937 719.291 438.86V338.797C719.291 337.72 719.008 336.671 718.469 335.735 717.931 334.8 717.165 334.035 716.23 333.496 715.294 332.957 714.246 332.674 713.169 332.674H399.94C398.863 332.674 397.814 332.957 396.879 333.496 395.943 334.035 395.178 334.8 394.639 335.735 394.101 336.671 393.817 337.72 393.817 338.797L393.846 438.888Z"/>
<path transform="matrix(1,0,0,-1,0,525.6)" stroke-width="1.50233" stroke-linecap="round" stroke-linejoin="round" fill="none" stroke="#187d70" d="M413.518 419.528V424.29C413.518 432.454 425.197 432.454 425.197 424.29V419.528"/>
<path transform="matrix(1,0,0,-1,0,525.6)" d="M410.627 419.329V419.329C410.627 419.783 410.74 420.208 410.967 420.576 411.194 420.973 411.506 421.285 411.874 421.512 412.271 421.739 412.696 421.852 413.15 421.852L425.65 421.824C426.104 421.824 426.529 421.71 426.898 421.483 427.294 421.257 427.606 420.945 427.833 420.576 428.06 420.18 428.173 419.754 428.173 419.301V412.441C428.173 411.987 428.06 411.562 427.833 411.194 427.606 410.797 427.294 410.485 426.926 410.258 426.529 410.031 426.104 409.918 425.65 409.918H413.121C412.668 409.918 412.243 410.031 411.874 410.258 411.477 410.485 411.165 410.797 410.939 411.165 410.712 411.562 410.598 411.987 410.598 412.441L410.627 419.329Z" fill="#187d70" fill-rule="evenodd"/>
<path transform="matrix(1,0,0,-1,0,525.6)" stroke-width=".59526" stroke-linecap="butt" stroke-linejoin="round" fill="none" stroke="#187d70" d="M410.627 419.329V419.329C410.627 419.783 410.74 420.208 410.967 420.576 411.194 420.973 411.506 421.285 411.874 421.512 412.271 421.739 412.696 421.852 413.15 421.852L425.65 421.824C426.104 421.824 426.529 421.71 426.898 421.483 427.294 421.257 427.606 420.945 427.833 420.576 428.06 420.18 428.173 419.754 428.173 419.301V412.441C428.173 411.987 428.06 411.562 427.833 411.194 427.606 410.797 427.294 410.485 426.926 410.258 426.529 410.031 426.104 409.918 425.65 409.918H413.121C412.668 409.918 412.243 410.031 411.874 410.258 411.477 410.485 411.165 410.797 410.939 411.165 410.712 411.562 410.598 411.987 410.598 412.441L410.627 419.329Z"/>
<path transform="matrix(1,0,0,-1,0,525.6)" d="M418.337 417.033V417.033C418.337 417.26 418.394 417.458 418.507 417.657 418.62 417.855 418.762 417.997 418.961 418.11 419.159 418.224 419.357 418.28 419.584 418.28 419.811 418.28 420.009 418.224 420.208 418.11 420.406 417.997 420.548 417.855 420.661 417.657 420.775 417.458 420.831 417.26 420.831 417.033 420.831 416.806 420.775 416.608 420.661 416.409 420.548 416.211 420.406 416.069 420.208 415.956 420.009 415.843 419.811 415.786 419.584 415.786 419.357 415.786 419.159 415.843 418.961 415.956 418.762 416.069 418.62 416.211 418.507 416.409 418.394 416.608 418.337 416.806 418.337 417.033Z" fill="#ffffff" fill-rule="evenodd"/>
<path transform="matrix(1,0,0,-1,0,525.6)" stroke-width=".90707" stroke-linecap="round" stroke-linejoin="round" fill="none" stroke="#ffffff" d="M419.584 416.58V414.283"/>
<text fill="#187d70" xml:space="preserve" transform="matrix(1 0 -0 1 0 525.6)" font-size="21.997" font-family="Arial, Helvetica, sans-serif" font-weight="bold"><tspan y="-414.198" x="440.646 456.48384 468.69218 482.08836 494.2967 506.50505 512.5982 529.6899 535.783 541.87619 556.5262 562.6193 568.71249 580.92086 594.317 607.73519 613.4324 628.0604">Reuse Q, E, and Y&#x2081;</tspan></text>
<path transform="matrix(1,0,0,-1,0,525.6)" d="M408.217 390.274V390.274C408.217 391.039 408.416 391.776 408.784 392.428 409.181 393.08 409.72 393.647 410.372 394.016 411.024 394.384 411.789 394.583 412.526 394.583H494.589C495.354 394.583 496.091 394.384 496.743 394.016 497.395 393.619 497.962 393.08 498.331 392.428 498.699 391.776 498.898 391.011 498.898 390.274L498.926 365.811C498.926 365.046 498.728 364.309 498.359 363.657 497.962 363.005 497.424 362.438 496.772 362.069 496.12 361.701 495.354 361.502 494.617 361.502L412.526 361.474C411.761 361.474 411.024 361.672 410.372 362.041 409.72 362.438 409.153 362.976 408.784 363.628 408.416 364.28 408.217 365.046 408.217 365.783V390.274Z" fill="#f1f4f6" fill-rule="evenodd"/>
<path transform="matrix(1,0,0,-1,0,525.6)" stroke-width=".79368" stroke-linecap="butt" stroke-linejoin="round" fill="none" stroke="#66737d" d="M408.217 390.274V390.274C408.217 391.039 408.416 391.776 408.784 392.428 409.181 393.08 409.72 393.647 410.372 394.016 411.024 394.384 411.789 394.583 412.526 394.583H494.589C495.354 394.583 496.091 394.384 496.743 394.016 497.395 393.619 497.962 393.08 498.331 392.428 498.699 391.776 498.898 391.011 498.898 390.274L498.926 365.811C498.926 365.046 498.728 364.309 498.359 363.657 497.962 363.005 497.424 362.438 496.772 362.069 496.12 361.701 495.354 361.502 494.617 361.502L412.526 361.474C411.761 361.474 411.024 361.672 410.372 362.041 409.72 362.438 409.153 362.976 408.784 363.628 408.416 364.28 408.217 365.046 408.217 365.783V390.274Z"/>
<text fill="#66737d" xml:space="preserve" transform="matrix(1 0 -0 1 0 525.6)" font-size="22.989" font-family="Arial, Helvetica, sans-serif" font-weight="bold"><tspan y="-368.419" x="440.079 456.67707">A&#x2080;</tspan></text>
<text fill="#66737d" xml:space="preserve" transform="matrix(1 0 -0 1 0 525.6)" font-size="18.51" font-family="Arial, Helvetica, sans-serif"><tspan y="-344.353" x="423.836 437.1632 447.45478 457.7278 462.8736 469.0189 479.29194">Neutral</tspan></text>
<path transform="matrix(1,0,0,-1,0,525.6)" d="M509.726 390.274V390.274C509.726 391.039 509.924 391.776 510.293 392.428 510.69 393.08 511.228 393.647 511.88 394.016 512.532 394.384 513.298 394.583 514.035 394.583H596.098C596.863 394.583 597.6 394.384 598.252 394.016 598.904 393.619 599.471 393.08 599.839 392.428 600.208 391.776 600.406 391.011 600.406 390.274L600.435 365.811C600.435 365.046 600.236 364.309 599.868 363.657 599.471 363.005 598.932 362.438 598.28 362.069 597.628 361.701 596.863 361.502 596.126 361.502L514.035 361.474C513.269 361.474 512.532 361.672 511.88 362.041 511.228 362.438 510.661 362.976 510.293 363.628 509.924 364.28 509.726 365.046 509.726 365.783V390.274Z" fill="#ecf4fc" fill-rule="evenodd"/>
<path transform="matrix(1,0,0,-1,0,525.6)" stroke-width=".79368" stroke-linecap="butt" stroke-linejoin="round" fill="none" stroke="#2768a5" d="M509.726 390.274V390.274C509.726 391.039 509.924 391.776 510.293 392.428 510.69 393.08 511.228 393.647 511.88 394.016 512.532 394.384 513.298 394.583 514.035 394.583H596.098C596.863 394.583 597.6 394.384 598.252 394.016 598.904 393.619 599.471 393.08 599.839 392.428 600.208 391.776 600.406 391.011 600.406 390.274L600.435 365.811C600.435 365.046 600.236 364.309 599.868 363.657 599.471 363.005 598.932 362.438 598.28 362.069 597.628 361.701 596.863 361.502 596.126 361.502L514.035 361.474C513.269 361.474 512.532 361.672 511.88 362.041 511.228 362.438 510.661 362.976 510.293 363.628 509.924 364.28 509.726 365.046 509.726 365.783V390.274Z"/>
<text fill="#2768a5" xml:space="preserve" transform="matrix(1 0 -0 1 0 525.6)" font-size="22.989" font-family="Arial, Helvetica, sans-serif" font-weight="bold"><tspan y="-368.419" x="542.013 558.6111">A&#x2081;</tspan></text>
<text fill="#2768a5" xml:space="preserve" transform="matrix(1 0 -0 1 0 525.6)" font-size="18.51" font-family="Arial, Helvetica, sans-serif"><tspan y="-344.353" x="506.324 518.6332 528.92477 539.1978 549.4894 558.7444 574.1447 584.4363 594.70938">Anonymous</tspan></text>
<path transform="matrix(1,0,0,-1,0,525.6)" d="M611.972 390.274V390.274C611.972 391.039 612.17 391.776 612.539 392.428 612.935 393.08 613.474 393.647 614.126 394.016 614.778 394.384 615.543 394.583 616.28 394.583H698.343C699.109 394.583 699.846 394.384 700.498 394.016 701.15 393.619 701.717 393.08 702.085 392.428 702.454 391.776 702.652 391.011 702.652 390.274L702.68 365.811C702.68 365.046 702.482 364.309 702.113 363.657 701.717 363.005 701.178 362.438 700.526 362.069 699.874 361.701 699.109 361.502 698.372 361.502L616.28 361.474C615.515 361.474 614.778 361.672 614.126 362.041 613.474 362.438 612.907 362.976 612.539 363.628 612.17 364.28 611.972 365.046 611.972 365.783V390.274Z" fill="#fff0e6" fill-rule="evenodd"/>
<path transform="matrix(1,0,0,-1,0,525.6)" stroke-width=".79368" stroke-linecap="butt" stroke-linejoin="round" fill="none" stroke="#b55929" d="M611.972 390.274V390.274C611.972 391.039 612.17 391.776 612.539 392.428 612.935 393.08 613.474 393.647 614.126 394.016 614.778 394.384 615.543 394.583 616.28 394.583H698.343C699.109 394.583 699.846 394.384 700.498 394.016 701.15 393.619 701.717 393.08 702.085 392.428 702.454 391.776 702.652 391.011 702.652 390.274L702.68 365.811C702.68 365.046 702.482 364.309 702.113 363.657 701.717 363.005 701.178 362.438 700.526 362.069 699.874 361.701 699.109 361.502 698.372 361.502L616.28 361.474C615.515 361.474 614.778 361.672 614.126 362.041 613.474 362.438 612.907 362.976 612.539 363.628 612.17 364.28 611.972 365.046 611.972 365.783V390.274Z"/>
<text fill="#b55929" xml:space="preserve" transform="matrix(1 0 -0 1 0 525.6)" font-size="22.989" font-family="Arial, Helvetica, sans-serif" font-weight="bold"><tspan y="-368.419" x="643.691 660.28909">A&#x2083;</tspan></text>
<text fill="#b55929" xml:space="preserve" transform="matrix(1 0 -0 1 0 525.6)" font-size="18.51" font-family="Arial, Helvetica, sans-serif"><tspan y="-344.353" x="630.68 642.98916 652.24417 662.5357 672.8088 678.9726">Expert</tspan></text>
<path transform="matrix(1,0,0,-1,0,525.6)" stroke-width="1.50233" stroke-linecap="round" stroke-linejoin="round" fill="none" stroke="#526270" d="M556.554 331.2V328.45"/>
<path transform="matrix(1,0,0,-1,0,525.6)" d="M556.554 324.737 554.57 328.706H558.539L556.554 324.737Z" fill="#526270" fill-rule="evenodd"/>
<path transform="matrix(1,0,0,-1,0,525.6)" d="M460.091 315.78V315.78C460.091 316.857 460.375 317.906 460.913 318.841 461.452 319.776 462.217 320.542 463.153 321.08 464.088 321.619 465.137 321.902 466.214 321.902L647.66 321.874C648.737 321.874 649.786 321.591 650.721 321.052 651.657 320.513 652.422 319.748 652.961 318.813 653.499 317.877 653.783 316.828 653.783 315.751V274.706C653.783 273.628 653.499 272.58 652.961 271.644 652.422 270.709 651.657 269.943 650.721 269.405 649.786 268.866 648.737 268.583 647.66 268.583H466.186C465.109 268.583 464.06 268.866 463.124 269.405 462.189 269.943 461.424 270.709 460.885 271.644 460.346 272.58 460.063 273.628 460.063 274.706L460.091 315.78Z" fill="#ffffff" fill-rule="evenodd"/>
<path transform="matrix(1,0,0,-1,0,525.6)" stroke-width="1.30391" stroke-linecap="butt" stroke-linejoin="round" fill="none" stroke="#2768a5" d="M460.091 315.78V315.78C460.091 316.857 460.375 317.906 460.913 318.841 461.452 319.776 462.217 320.542 463.153 321.08 464.088 321.619 465.137 321.902 466.214 321.902L647.66 321.874C648.737 321.874 649.786 321.591 650.721 321.052 651.657 320.513 652.422 319.748 652.961 318.813 653.499 317.877 653.783 316.828 653.783 315.751V274.706C653.783 273.628 653.499 272.58 652.961 271.644 652.422 270.709 651.657 269.943 650.721 269.405 649.786 268.866 648.737 268.583 647.66 268.583H466.186C465.109 268.583 464.06 268.866 463.124 269.405 462.189 269.943 461.424 270.709 460.885 271.644 460.346 272.58 460.063 273.628 460.063 274.706L460.091 315.78Z"/>
<path transform="matrix(1,0,0,-1,0,525.6)" d="M482.57 302.598V302.598C482.57 303.165 482.712 303.732 482.995 304.214 483.279 304.724 483.704 305.121 484.186 305.405 484.696 305.688 485.235 305.83 485.802 305.83H500.513C501.08 305.83 501.647 305.688 502.129 305.405 502.639 305.121 503.036 304.696 503.32 304.214 503.603 303.704 503.745 303.165 503.745 302.598L503.773 287.887C503.773 287.32 503.631 286.753 503.348 286.271 503.065 285.761 502.639 285.364 502.157 285.08 501.647 284.797 501.109 284.655 500.542 284.655L485.802 284.627C485.235 284.627 484.668 284.769 484.186 285.052 483.676 285.335 483.279 285.761 482.995 286.243 482.712 286.753 482.57 287.291 482.57 287.858V302.598Z" fill="#ffffff" fill-rule="evenodd"/>
<path transform="matrix(1,0,0,-1,0,525.6)" stroke-width="1.3606" stroke-linecap="butt" stroke-linejoin="round" fill="none" stroke="#2768a5" d="M482.57 302.598V302.598C482.57 303.165 482.712 303.732 482.995 304.214 483.279 304.724 483.704 305.121 484.186 305.405 484.696 305.688 485.235 305.83 485.802 305.83H500.513C501.08 305.83 501.647 305.688 502.129 305.405 502.639 305.121 503.036 304.696 503.32 304.214 503.603 303.704 503.745 303.165 503.745 302.598L503.773 287.887C503.773 287.32 503.631 286.753 503.348 286.271 503.065 285.761 502.639 285.364 502.157 285.08 501.647 284.797 501.109 284.655 500.542 284.655L485.802 284.627C485.235 284.627 484.668 284.769 484.186 285.052 483.676 285.335 483.279 285.761 482.995 286.243 482.712 286.753 482.57 287.291 482.57 287.858V302.598Z"/>
<path transform="matrix(1,0,0,-1,0,525.6)" stroke-width="1.10549" stroke-linecap="round" stroke-linejoin="round" fill="none" stroke="#2768a5" d="M476.957 301.833H481.918"/>
<path transform="matrix(1,0,0,-1,0,525.6)" stroke-width="1.10549" stroke-linecap="round" stroke-linejoin="round" fill="none" stroke="#2768a5" d="M504.454 301.833H509.414"/>
<path transform="matrix(1,0,0,-1,0,525.6)" stroke-width="1.10549" stroke-linecap="round" stroke-linejoin="round" fill="none" stroke="#2768a5" d="M486.567 311.443V306.482"/>
<path transform="matrix(1,0,0,-1,0,525.6)" stroke-width="1.10549" stroke-linecap="round" stroke-linejoin="round" fill="none" stroke="#2768a5" d="M486.567 283.946V278.986"/>
<path transform="matrix(1,0,0,-1,0,525.6)" stroke-width="1.10549" stroke-linecap="round" stroke-linejoin="round" fill="none" stroke="#2768a5" d="M476.957 295.2H481.918"/>
<path transform="matrix(1,0,0,-1,0,525.6)" stroke-width="1.10549" stroke-linecap="round" stroke-linejoin="round" fill="none" stroke="#2768a5" d="M504.454 295.2H509.414"/>
<path transform="matrix(1,0,0,-1,0,525.6)" stroke-width="1.10549" stroke-linecap="round" stroke-linejoin="round" fill="none" stroke="#2768a5" d="M493.2 311.443V306.482"/>
<path transform="matrix(1,0,0,-1,0,525.6)" stroke-width="1.10549" stroke-linecap="round" stroke-linejoin="round" fill="none" stroke="#2768a5" d="M493.2 283.946V278.986"/>
<path transform="matrix(1,0,0,-1,0,525.6)" stroke-width="1.10549" stroke-linecap="round" stroke-linejoin="round" fill="none" stroke="#2768a5" d="M476.957 288.595H481.918"/>
<path transform="matrix(1,0,0,-1,0,525.6)" stroke-width="1.10549" stroke-linecap="round" stroke-linejoin="round" fill="none" stroke="#2768a5" d="M504.454 288.595H509.414"/>
<path transform="matrix(1,0,0,-1,0,525.6)" stroke-width="1.10549" stroke-linecap="round" stroke-linejoin="round" fill="none" stroke="#2768a5" d="M499.805 311.443V306.482"/>
<path transform="matrix(1,0,0,-1,0,525.6)" stroke-width="1.10549" stroke-linecap="round" stroke-linejoin="round" fill="none" stroke="#2768a5" d="M499.805 283.946V278.986"/>
<path transform="matrix(1,0,0,-1,0,525.6)" stroke-width=".99211" stroke-linecap="round" stroke-linejoin="round" fill="none" stroke="#2768a5" d="M487.531 299.509H493.143V291.883H498.132"/>
<path transform="matrix(1,0,0,-1,0,525.6)" stroke-width=".99211" stroke-linecap="round" stroke-linejoin="round" fill="none" stroke="#2768a5" d="M487.899 290.268H490.876V294.576"/>
<text fill="#2768a5" xml:space="preserve" transform="matrix(1 0 -0 1 0 525.6)" font-size="25.002" font-family="Arial, Helvetica, sans-serif" font-weight="bold"><tspan y="-287.631" x="522.709 539.3603 553.2614 575.43826 589.33938">Same </tspan></text>
<text fill="#2768a5" xml:space="preserve" transform="matrix(1 0 -0 1 0 525.6)" font-size="25.002" font-family="'Times New Roman', Times, serif" font-weight="bold" font-style="italic"><tspan y="-287.631" x="596.239">M</tspan></text>
<path transform="matrix(1,0,0,-1,0,525.6)" stroke-width="1.38895" stroke-linecap="round" stroke-linejoin="round" fill="none" stroke="#2768a5" d="M506.154 267.137V234.142"/>
<path transform="matrix(1,0,0,-1,0,525.6)" d="M506.154 230.428 504.17 234.397H508.139L506.154 230.428Z" fill="#2768a5" fill-rule="evenodd"/>
<path transform="matrix(1,0,0,-1,0,525.6)" stroke-width="1.30391" stroke-linecap="round" stroke-linejoin="round" fill="none" stroke="#72618c" d="M621.354 267.137V234.142"/>
<path transform="matrix(1,0,0,-1,0,525.6)" d="M621.354 230.428 619.37 234.397H623.339L621.354 230.428Z" fill="#72618c" fill-rule="evenodd"/>
<path transform="matrix(1,0,0,-1,0,525.6)" d="M442.091 222.123V222.123C442.091 223.058 442.346 223.994 442.828 224.816 443.282 225.638 443.962 226.318 444.784 226.8 445.606 227.282 446.542 227.509 447.477 227.509H564.831C565.767 227.509 566.702 227.254 567.524 226.772 568.346 226.318 569.027 225.638 569.509 224.816 569.991 223.994 570.217 223.058 570.217 222.123L570.246 181.814C570.246 180.879 569.991 179.943 569.509 179.121 569.055 178.299 568.375 177.619 567.553 177.137 566.731 176.655 565.795 176.428 564.86 176.428L447.477 176.4C446.542 176.4 445.606 176.655 444.784 177.137 443.962 177.591 443.282 178.271 442.8 179.093 442.318 179.915 442.091 180.85 442.091 181.786V222.123Z" fill="#ecf4fc" fill-rule="evenodd"/>
<path transform="matrix(1,0,0,-1,0,525.6)" stroke-width="1.19053" stroke-linecap="butt" stroke-linejoin="round" fill="none" stroke="#2768a5" d="M442.091 222.123V222.123C442.091 223.058 442.346 223.994 442.828 224.816 443.282 225.638 443.962 226.318 444.784 226.8 445.606 227.282 446.542 227.509 447.477 227.509H564.831C565.767 227.509 566.702 227.254 567.524 226.772 568.346 226.318 569.027 225.638 569.509 224.816 569.991 223.994 570.217 223.058 570.217 222.123L570.246 181.814C570.246 180.879 569.991 179.943 569.509 179.121 569.055 178.299 568.375 177.619 567.553 177.137 566.731 176.655 565.795 176.428 564.86 176.428L447.477 176.4C446.542 176.4 445.606 176.655 444.784 177.137 443.962 177.591 443.282 178.271 442.8 179.093 442.318 179.915 442.091 180.85 442.091 181.786V222.123Z"/>
<text fill="#2768a5" xml:space="preserve" transform="matrix(1 0 -0 1 0 525.6)" font-size="19.502" font-family="Arial, Helvetica, sans-serif" font-weight="bold"><tspan y="-205.342" x="468.652 482.75196 493.61457 504.45768 509.87925 520.7419 531.60458">Revised</tspan></text>
<text fill="#203346" xml:space="preserve" transform="matrix(1 0 -0 1 0 525.6)" font-size="25.002" font-family="'Times New Roman', Times, serif"><tspan y="-181.417" x="492.803 510.80445">Y&#x2082;</tspan></text>
<path transform="matrix(1,0,0,-1,0,525.6)" d="M596.154 222.123V222.123C596.154 223.058 596.409 223.994 596.891 224.816 597.345 225.638 598.025 226.318 598.847 226.8 599.669 227.282 600.605 227.509 601.54 227.509H698.031C698.967 227.509 699.902 227.254 700.724 226.772 701.546 226.318 702.227 225.638 702.709 224.816 703.191 223.994 703.417 223.058 703.417 222.123L703.446 181.814C703.446 180.879 703.191 179.943 702.709 179.121 702.255 178.299 701.575 177.619 700.753 177.137 699.931 176.655 698.995 176.428 698.06 176.428L601.54 176.4C600.605 176.4 599.669 176.655 598.847 177.137 598.025 177.591 597.345 178.271 596.863 179.093 596.381 179.915 596.154 180.85 596.154 181.786V222.123Z" fill="#f4f0f8" fill-rule="evenodd"/>
<path transform="matrix(1,0,0,-1,0,525.6)" stroke-width=".99211" stroke-linecap="butt" stroke-dasharray="3.96843,2.97632" stroke-linejoin="round" fill="none" stroke="#b9aacc" d="M596.154 222.123V222.123C596.154 223.058 596.409 223.994 596.891 224.816 597.345 225.638 598.025 226.318 598.847 226.8 599.669 227.282 600.605 227.509 601.54 227.509H698.031C698.967 227.509 699.902 227.254 700.724 226.772 701.546 226.318 702.227 225.638 702.709 224.816 703.191 223.994 703.417 223.058 703.417 222.123L703.446 181.814C703.446 180.879 703.191 179.943 702.709 179.121 702.255 178.299 701.575 177.619 700.753 177.137 699.931 176.655 698.995 176.428 698.06 176.428L601.54 176.4C600.605 176.4 599.669 176.655 598.847 177.137 598.025 177.591 597.345 178.271 596.863 179.093 596.381 179.915 596.154 180.85 596.154 181.786V222.123Z"/>
<text fill="#72618c" xml:space="preserve" transform="matrix(1 0 -0 1 0 525.6)" font-size="19.502" font-family="Arial, Helvetica, sans-serif" font-weight="bold"><tspan y="-205.342" x="605.735 619.83499 630.69766 637.1918 642.61337 654.5486 666.46438 677.327 682.7486">Rationale</tspan></text>
<text fill="#72618c" xml:space="preserve" transform="matrix(1 0 -0 1 0 525.6)" font-size="25.002" font-family="'Times New Roman', Times, serif"><tspan y="-181.417" x="637.087 653.7383">R&#x2082;</tspan></text>
<text fill="#72618c" xml:space="preserve" transform="matrix(1 0 -0 1 0 525.6)" font-size="18.51" font-family="Arial, Helvetica, sans-serif"><tspan y="-153.921" x="599.811 610.08407 620.3756 630.6487 640.94027 651.2133 661.5049 666.63217 676.9237 687.1968 691.30599">Logged only</tspan></text>
<path transform="matrix(1,0,0,-1,0,525.6)" d="M393.846 142.583V142.583C393.846 143.603 394.101 144.595 394.611 145.474 395.121 146.353 395.858 147.061 396.737 147.572 397.616 148.082 398.608 148.337 399.6 148.337H713.509C714.529 148.337 715.521 148.082 716.4 147.572 717.279 147.061 717.987 146.324 718.498 145.446 719.008 144.567 719.263 143.575 719.263 142.583L719.291 79.228C719.291 78.208 719.036 77.216 718.526 76.337 718.016 75.458 717.279 74.75 716.4 74.239 715.521 73.729 714.529 73.474 713.537 73.474L399.6 73.446C398.58 73.446 397.587 73.701 396.709 74.211 395.83 74.721 395.121 75.458 394.611 76.337 394.101 77.216 393.846 78.208 393.846 79.2V142.583Z" fill="#f4f0f8" fill-rule="evenodd"/>
<path transform="matrix(1,0,0,-1,0,525.6)" stroke-width=".99211" stroke-linecap="butt" stroke-dasharray="3.96843,2.97632" stroke-linejoin="round" fill="none" stroke="#b9aacc" d="M393.846 142.583V142.583C393.846 143.603 394.101 144.595 394.611 145.474 395.121 146.353 395.858 147.061 396.737 147.572 397.616 148.082 398.608 148.337 399.6 148.337H713.509C714.529 148.337 715.521 148.082 716.4 147.572 717.279 147.061 717.987 146.324 718.498 145.446 719.008 144.567 719.263 143.575 719.263 142.583L719.291 79.228C719.291 78.208 719.036 77.216 718.526 76.337 718.016 75.458 717.279 74.75 716.4 74.239 715.521 73.729 714.529 73.474 713.537 73.474L399.6 73.446C398.58 73.446 397.587 73.701 396.709 74.211 395.83 74.721 395.121 75.458 394.611 76.337 394.101 77.216 393.846 78.208 393.846 79.2V142.583Z"/>
<text fill="#72618c" xml:space="preserve" transform="matrix(1 0 -0 1 0 525.6)" font-size="19.502" font-family="Arial, Helvetica, sans-serif" font-weight="bold"><tspan y="-122.23" x="425.565 438.59236 449.45497 460.29808 471.16069 477.65486 488.51747 493.91954 500.4137 511.2763 522.139 532.9821 544.91738 555.78 563.36636 569.8605 576.3546 588.2704 595.8762 606.7389 617.58206 629.5173 634.93887 645.782 656.64468 668.5799 676.1662">Pass-2 teacher-forced score</tspan></text>
<text fill="#72618c" xml:space="preserve" transform="matrix(1 0 -0 1 0 525.6)" font-size="23.499" font-family="'Times New Roman', Times, serif"><tspan y="-87.024" x="425.622 436.87803 445.05567 450.93043 464.18388 470.05863 476.59135 488.31736 500.06687 505.94163 519.0071 526.8323 541.49569 551.9057 561.0468 568.872 574.74679 587.9767 593.85147 600.36068 612.11019 623.8597 629.73446 642.79989 650.62509 667.61489 679.3409">&#x2113;&#x2082; = log P(Yes) &#x2212; log P(No)</tspan></text>
<path transform="matrix(1,0,0,-1,0,525.6)" stroke-width=".90707" stroke-linecap="round" stroke-dasharray="2.73028,3.61921" stroke-linejoin="round" fill="none" stroke="#72618c" d="M410.4 331.937 401.754 325.474V156.246"/>
<path transform="matrix(1,0,0,-1,0,525.6)" stroke-width=".99211" stroke-linecap="round" stroke-dasharray="2.98625,3.95851" stroke-linejoin="round" fill="none" stroke="#72618c" d="M401.754 156.246V153.496"/>
<path transform="matrix(1,0,0,-1,0,525.6)" d="M401.754 149.783 399.77 153.751H403.739L401.754 149.783Z" fill="#72618c" fill-rule="evenodd"/>
<text fill="#203346" xml:space="preserve" transform="matrix(1 0 -0 1 0 525.6)" font-size="25.002" font-family="'Times New Roman', Times, serif" font-weight="bold"><tspan y="-487.446" x="764.617">c</tspan></text>
<text fill="#203346" xml:space="preserve" transform="matrix(1 0 -0 1 0 525.6)" font-size="21.997" font-family="Arial, Helvetica, sans-serif" font-weight="bold"><tspan y="-488.721" x="795.572 811.40988 824.806 844.3394 857.7356 863.82876 876.0371 883.34017 895.5485 901.64169 913.85006 927.2462 940.66439 946.7575 954.06057 960.1537 968.7105 980.89688 993.1052 1006.5234 1019.91958 1033.3158 1040.6188">Complete audit readouts</tspan></text>
<path transform="matrix(1,0,0,-1,0,525.6)" d="M764.617 452.92V452.92C764.617 454.195 764.957 455.414 765.581 456.52 766.205 457.625 767.112 458.532 768.217 459.156 769.323 459.78 770.542 460.12 771.817 460.12H1131.817C1133.093 460.12 1134.312 459.78 1135.417 459.156 1136.523 458.532 1137.43 457.625 1138.054 456.52 1138.677 455.414 1139.017 454.195 1139.017 452.92V287.32C1139.017 286.044 1138.677 284.825 1138.054 283.72 1137.43 282.614 1136.523 281.707 1135.417 281.083 1134.312 280.46 1133.093 280.12 1131.817 280.12H771.817C770.542 280.12 769.323 280.46 768.217 281.083 767.112 281.707 766.205 282.614 765.581 283.72 764.957 284.825 764.617 286.044 764.617 287.32V452.92Z" fill="#ffffff" fill-rule="evenodd"/>
<path transform="matrix(1,0,0,-1,0,525.6)" stroke-width=".99211" stroke-linecap="butt" stroke-linejoin="round" fill="none" stroke="#b9c6cf" d="M764.617 452.92V452.92C764.617 454.195 764.957 455.414 765.581 456.52 766.205 457.625 767.112 458.532 768.217 459.156 769.323 459.78 770.542 460.12 771.817 460.12H1131.817C1133.093 460.12 1134.312 459.78 1135.417 459.156 1136.523 458.532 1137.43 457.625 1138.054 456.52 1138.677 455.414 1139.017 454.195 1139.017 452.92V287.32C1139.017 286.044 1138.677 284.825 1138.054 283.72 1137.43 282.614 1136.523 281.707 1135.417 281.083 1134.312 280.46 1133.093 280.12 1131.817 280.12H771.817C770.542 280.12 769.323 280.46 768.217 281.083 767.112 281.707 766.205 282.614 765.581 283.72 764.957 284.825 764.617 286.044 764.617 287.32V452.92Z"/>
<text fill="#203346" xml:space="preserve" transform="matrix(1 0 -0 1 0 525.6)" font-size="21.997" font-family="Arial, Helvetica, sans-serif" font-weight="bold"><tspan y="-427.833" x="780.463 796.30087 808.5092 820.7176 832.92599 841.4608 853.6692 865.87759 871.9707 878.06387 890.2722 903.6684 917.0646 923.1577 935.3661 948.76229 962.15847 970.6933 982.9017 995.11007 1001.2032 1013.41159 1020.7146 1028.0176 1040.226 1052.4343 1059.7373">Reversal and source effects</tspan></text>
<text fill="#203346" xml:space="preserve" transform="matrix(1 0 -0 1 0 525.6)" font-size="25.002" font-family="'Times New Roman', Times, serif"><tspan y="-391.691" x="850.167 866.8433 873.0688 887.1449 893.37039 907.2715 915.57217 923.8728 941.89926 950.5999 956.8254 970.5265 975.8519 993.87838 1002.57907 1008.8045 1013.80496 1018.6803 1045.0824">r = Pr(Y&#x2082; &#x2260; Y&#x2081; | A)</tspan></text>
<text fill="#203346" xml:space="preserve" transform="matrix(1 0 -0 1 0 525.6)" font-size="25.002" font-family="'Times New Roman', Times, serif"><tspan y="-391.691" x="858.472 1036.7612">&#x2096;&#x2096;</tspan></text>
<text fill="#66737d" xml:space="preserve" transform="matrix(1 0 -0 1 0 525.6)" font-size="20.494" font-family="Arial, Helvetica, sans-serif" font-weight="bold"><tspan y="-360.822" x="781.2 795.9967 803.9689 809.6457 816.4702">Drift</tspan></text>
<text fill="#66737d" xml:space="preserve" transform="matrix(1 0 -0 1 0 525.6)" font-size="24.009" font-family="'Times New Roman', Times, serif"><tspan y="-359.008" x="1063.219 1080.5535 1086.5557 1100.0728 1106.075 1114.07">D = r&#x2080;</tspan></text>
<text fill="#2768a5" xml:space="preserve" transform="matrix(1 0 -0 1 0 525.6)" font-size="20.494" font-family="Arial, Helvetica, sans-serif" font-weight="bold"><tspan y="-332.759" x="781.2 795.9967 801.6735 813.0682 824.4628 836.9642 844.93637 856.331 867.72567 885.9448 897.3395 909.8408">Disagreement</tspan></text>
<text fill="#2768a5" xml:space="preserve" transform="matrix(1 0 -0 1 0 525.6)" font-size="24.009" font-family="'Times New Roman', Times, serif"><tspan y="-330.917" x="1021.323 1038.6575 1044.6597 1058.1768 1064.179 1072.174 1080.529 1086.5313 1100.0484 1106.0505 1114.0455">G = r&#x2081; &#x2212; r&#x2080;</tspan></text>
<text fill="#b55929" xml:space="preserve" transform="matrix(1 0 -0 1 0 525.6)" font-size="20.494" font-family="Arial, Helvetica, sans-serif" font-weight="bold"><tspan y="-304.668" x="781.2 794.849 806.24368 818.745 830.13967 838.1118 844.93637 850.63369 856.3105 867.70516 880.2475 891.64218">Expert label</tspan></text>
<text fill="#b55929" xml:space="preserve" transform="matrix(1 0 -0 1 0 525.6)" font-size="24.009" font-family="'Times New Roman', Times, serif"><tspan y="-302.825" x="1026.198 1038.6587 1044.6609 1058.178 1064.1802 1072.1752 1080.5303 1086.5325 1100.0496 1106.0518 1114.0468">P = r&#x2083; &#x2212; r&#x2081;</tspan></text>
<path transform="matrix(1,0,0,-1,0,525.6)" d="M764.617 257.811V257.811C764.617 259.087 764.957 260.306 765.581 261.411 766.205 262.517 767.112 263.424 768.217 264.047 769.323 264.671 770.542 265.011 771.817 265.011L1131.817 264.983C1133.093 264.983 1134.312 264.643 1135.417 264.019 1136.523 263.395 1137.43 262.488 1138.054 261.383 1138.677 260.277 1139.017 259.058 1139.017 257.783V183.628C1139.017 182.353 1138.677 181.134 1138.054 180.028 1137.43 178.923 1136.523 178.016 1135.417 177.392 1134.312 176.769 1133.093 176.428 1131.817 176.428H771.789C770.513 176.428 769.294 176.769 768.189 177.392 767.083 178.016 766.176 178.923 765.553 180.028 764.929 181.134 764.589 182.353 764.589 183.628L764.617 257.811Z" fill="#ffffff" fill-rule="evenodd"/>
<path transform="matrix(1,0,0,-1,0,525.6)" stroke-width=".99211" stroke-linecap="butt" stroke-linejoin="round" fill="none" stroke="#b9c6cf" d="M764.617 257.811V257.811C764.617 259.087 764.957 260.306 765.581 261.411 766.205 262.517 767.112 263.424 768.217 264.047 769.323 264.671 770.542 265.011 771.817 265.011L1131.817 264.983C1133.093 264.983 1134.312 264.643 1135.417 264.019 1136.523 263.395 1137.43 262.488 1138.054 261.383 1138.677 260.277 1139.017 259.058 1139.017 257.783V183.628C1139.017 182.353 1138.677 181.134 1138.054 180.028 1137.43 178.923 1136.523 178.016 1135.417 177.392 1134.312 176.769 1133.093 176.428 1131.817 176.428H771.789C770.513 176.428 769.294 176.769 768.189 177.392 767.083 178.016 766.176 178.923 765.553 180.028 764.929 181.134 764.589 182.353 764.589 183.628L764.617 257.811Z"/>
<text fill="#203346" xml:space="preserve" transform="matrix(1 0 -0 1 0 525.6)" font-size="21.005" font-family="Arial, Helvetica, sans-serif" font-weight="bold"><tspan y="-235.332" x="780.463 795.6286 807.3074 818.98617 831.7992 839.97018 851.6489 863.3277 875.0065 880.8248 892.5036 905.31668 918.1297 923.94808 930.94277 939.1137 950.7925 963.6055 975.2843 981.10269 988.07638 993.8947 1006.70779 1019.5208 1025.3392 1038.1524 1043.9707 1052.1416 1063.8204 1075.4993 1082.4729 1088.2913 1101.1043">Accuracy and transition direction</tspan></text>
<text fill="#203346" xml:space="preserve" transform="matrix(1 0 -0 1 0 525.6)" font-size="23.499" font-family="'Times New Roman', Times, serif"><tspan y="-205.483" x="814.961 830.07089 847.0372 857.4707 867.88076 875.70596 900.59146 908.4166 914.2914 927.5448 932.12716 949.09347 959.527 969.937 978.1147 985.9399 1010.8254 1018.6506 1024.5253 1037.7788 1042.3377 1059.3275 1069.7376 1080.1476">&#x0394;Acc(A) = Acc&#x2082;(A) &#x2212; Acc&#x2081;</tspan></text>
<text fill="#203346" xml:space="preserve" transform="matrix(1 0 -0 1 0 525.6)" font-size="23.499" font-family="'Times New Roman', Times, serif"><tspan y="-205.483" x="892.743 1003.0943">&#x2096;&#x2096;</tspan></text>
<text fill="#b55929" xml:space="preserve" transform="matrix(1 0 -0 1 0 525.6)" font-size="18.51" font-family="Arial, Helvetica, sans-serif"><tspan y="-181.304" x="780.293 793.6202 803.91177 810.05709 816.2024 826.49398 835.74899 840.8762 846.0035 864.495 869.62228 886.7255 892.88937 903.1624 913.454">Correct &#x2192; Wrong</tspan></text>
<text fill="#526270" xml:space="preserve" transform="matrix(1 0 -0 1 0 525.6)" font-size="18.51" font-family="Arial, Helvetica, sans-serif"><tspan y="-181.304" x="923.726 928.8533 933.9805 939.1078 944.23507 949.3623 954.1564 959.3021 964.4294 969.55667 974.6839">     |     </tspan></text>
<text fill="#187d70" xml:space="preserve" transform="matrix(1 0 -0 1 0 525.6)" font-size="18.51" font-family="Arial, Helvetica, sans-serif"><tspan y="-181.304" x="979.88 996.9833 1003.1286 1013.42019 1023.69326 1033.9848 1039.112 1057.6035 1062.7308 1076.0951 1086.368 1092.5319 1098.6771 1108.9501 1118.2051">Wrong &#x2192; Correct</tspan></text>
<path transform="matrix(1,0,0,-1,0,525.6)" d="M764.617 154.12V154.12C764.617 155.395 764.957 156.614 765.581 157.72 766.205 158.825 767.112 159.732 768.217 160.356 769.323 160.98 770.542 161.32 771.817 161.32L1131.817 161.291C1133.093 161.291 1134.312 160.951 1135.417 160.328 1136.523 159.704 1137.43 158.797 1138.054 157.691 1138.677 156.586 1139.017 155.367 1139.017 154.091V61.937C1139.017 60.661 1138.677 59.443 1138.054 58.337 1137.43 57.231 1136.523 56.324 1135.417 55.701 1134.312 55.077 1133.093 54.737 1131.817 54.737H771.789C770.513 54.737 769.294 55.077 768.189 55.701 767.083 56.324 766.176 57.231 765.553 58.337 764.929 59.443 764.589 60.661 764.589 61.937L764.617 154.12Z" fill="#f4f0f8" fill-rule="evenodd"/>
<path transform="matrix(1,0,0,-1,0,525.6)" stroke-width=".99211" stroke-linecap="butt" stroke-dasharray="3.96843,2.97632" stroke-linejoin="round" fill="none" stroke="#b9aacc" d="M764.617 154.12V154.12C764.617 155.395 764.957 156.614 765.581 157.72 766.205 158.825 767.112 159.732 768.217 160.356 769.323 160.98 770.542 161.32 771.817 161.32L1131.817 161.291C1133.093 161.291 1134.312 160.951 1135.417 160.328 1136.523 159.704 1137.43 158.797 1138.054 157.691 1138.677 156.586 1139.017 155.367 1139.017 154.091V61.937C1139.017 60.661 1138.677 59.443 1138.054 58.337 1137.43 57.231 1136.523 56.324 1135.417 55.701 1134.312 55.077 1133.093 54.737 1131.817 54.737H771.789C770.513 54.737 769.294 55.077 768.189 55.701 767.083 56.324 766.176 57.231 765.553 58.337 764.929 59.443 764.589 60.661 764.589 61.937L764.617 154.12Z"/>
<text fill="#72618c" xml:space="preserve" transform="matrix(1 0 -0 1 0 525.6)" font-size="21.487" font-family="Arial, Helvetica, sans-serif" font-weight="bold"><tspan y="-131.783" x="780.463 794.7734 803.13186 815.0571 822.2123 834.1376 842.49606 854.4213 867.5284 879.47518 891.40048 903.3472 911.6842 923.631 936.73806 949.8451 958.18209 965.3372 971.2891 990.39108 996.34298 1008.26828 1027.3703 1039.2955 1046.4507 1058.376">Preference&#x2013;report mismatch</tspan></text>
<text fill="#72618c" xml:space="preserve" transform="matrix(1 0 -0 1 0 525.6)" font-size="22.989" font-family="'Times New Roman', Times, serif"><tspan y="-99.128" x="801.921 818.5191 826.5423 832.28958 844.9105 849.8072 866.4053 874.42849 880.1757 885.923 896.1301 907.62466 919.11917 924.8664 930.61367 939.5564 945.9474 957.4419 968.9594 976.61477 987.6495 995.64968 1003.305 1009.05227 1021.99508 1027.7423 1036.685 1043.0759 1054.5704 1066.0879 1073.7433 1084.778 1092.7781">Y&#x2082; &#x2260; Y&#x2081;  and  sign(&#x2113;&#x2082;) = sign(&#x2113;&#x2081;)</tspan></text>
<text fill="#72618c" xml:space="preserve" transform="matrix(1 0 -0 1 0 525.6)" font-size="18.51" font-family="Arial, Helvetica, sans-serif"><tspan y="-68.967" x="813.657 825.9661 836.2577 845.5127 849.6219 853.7311 857.8218 868.11337 874.25869 883.5137 888.6409 897.89596 907.15097 917.4425 923.5878 933.8609 938.98818 944.1339 954.407 964.69857 969.8258 974.95309 985.2446 990.3719 994.4811 1004.75418 1009.8814 1020.173 1030.4459 1035.5918 1040.7191 1050.9921 1061.2836 1065.3928 1069.4835 1079.775 1084.9024">Auxiliary score; not a latent belief.</tspan></text>
<path transform="matrix(1,0,0,-1,0,525.6)" stroke-width="1.58737" stroke-linecap="round" stroke-linejoin="round" fill="none" stroke="#2768a5" d="M64.063 264.246H56.154"/>
<path transform="matrix(1,0,0,-1,0,525.6)" stroke-width="1.55902" stroke-linecap="round" stroke-linejoin="round" fill="none" stroke="#2768a5" d="M56.154 264.274V166.337H357.817V418.337H390.954"/>
<path transform="matrix(1,0,0,-1,0,525.6)" stroke-width="1.55902" stroke-linecap="round" stroke-linejoin="round" fill="none" stroke="#2768a5" d="M387.354 418.337H389.395"/>
<path transform="matrix(1,0,0,-1,0,525.6)" d="M393.109 418.337 389.14 416.353V420.321L393.109 418.337Z" fill="#2768a5" fill-rule="evenodd"/>
<path transform="matrix(1,0,0,-1,0,525.6)" d="M575.972 11.565H12.926V38.891H1138.989V11.565H575.972Z" fill="#ffffff" fill-rule="evenodd"/>
<path transform="matrix(1,0,0,-1,0,525.6)" stroke-width="1.19053" stroke-linecap="round" stroke-dasharray="3.5835,4.75022" stroke-linejoin="round" fill="none" stroke="#72618c" d="M25.2 25.2H61.909"/>
<text fill="#526270" xml:space="preserve" transform="matrix(1 0 -0 1 0 525.6)" font-size="19.502" font-family="Arial, Helvetica, sans-serif"><tspan y="-17.773" x="75.6 89.69994 100.56256 110.33306 121.17618 132.03879 142.9014 148.32295 153.725 164.58762 175.45023 185.22074 189.55017 193.87961 198.22855 209.09116 215.58533 225.35584 230.77739 235.10683 245.96944 256.83207 266.60258 272.02415 277.4262 282.84779 292.6183 302.3888 313.2514 319.74559 330.58869 340.3592 345.78077 350.8513 360.6413 371.5039 382.36653 392.13703 402.99964 413.84275 420.3369 426.8311 432.25267 443.11528 449.60945 459.37995 470.24256 481.10517 486.52674 496.29725 506.06776 516.9109 523.405 534.2677 544.0382 549.4598 560.3029 566.79708 577.6597 583.0813 593.92446 603.69497 614.5576 618.8871 623.2361 634.09878 644.9419 649.2909 660.13406 665.5556 670.9772 681.83987 688.334 693.75558 704.6182 715.4809 726.32406 737.1867 743.68087 757.7808 768.6435 772.97299 783.83566 794.6983 800.1199 805.5219 821.8061 832.66879 843.53146 854.3746 858.7236 868.4941 873.8961 884.7588 895.62149 899.9509 908.27828">Dashed: auxiliary logs / scores. Teacher-forced scores are available for open-weight models only.</tspan></text>
</g>
</svg>
